<mxfile host="app.diagrams.net" modified="2021-12-03T09:50:24.948Z" agent="5.0 (Windows NT 10.0; Win64; x64) AppleWebKit/537.36 (KHTML, like Gecko) Chrome/96.0.4664.45 Safari/537.36" etag="0aJY5AxcnNVtfKLeT_AP" version="15.7.3" type="github" pages="2">
  <diagram id="RIZV2CYgKsoqcWHlDbk7" name="Page-1">
    <mxGraphModel dx="1422" dy="772" grid="1" gridSize="10" guides="1" tooltips="1" connect="1" arrows="1" fold="1" page="1" pageScale="1" pageWidth="850" pageHeight="1100" math="0" shadow="0">
      <root>
        <mxCell id="0" />
        <mxCell id="1" parent="0" />
        <mxCell id="jhlzbFUFrZ9kzbWuyFnt-23" value="" style="edgeStyle=orthogonalEdgeStyle;rounded=0;orthogonalLoop=1;jettySize=auto;html=1;fontSize=14;" parent="1" source="jhlzbFUFrZ9kzbWuyFnt-18" edge="1">
          <mxGeometry relative="1" as="geometry">
            <mxPoint x="420" y="270" as="targetPoint" />
          </mxGeometry>
        </mxCell>
        <mxCell id="jhlzbFUFrZ9kzbWuyFnt-18" value="" style="rounded=0;whiteSpace=wrap;html=1;fontSize=14;align=left;" parent="1" vertex="1">
          <mxGeometry x="300" y="135" width="120" height="60" as="geometry" />
        </mxCell>
        <mxCell id="jhlzbFUFrZ9kzbWuyFnt-19" value="payload" style="text;html=1;resizable=0;autosize=1;align=center;verticalAlign=middle;points=[];fillColor=none;strokeColor=none;rounded=0;fontSize=14;" parent="1" vertex="1">
          <mxGeometry x="330" y="155" width="60" height="20" as="geometry" />
        </mxCell>
        <mxCell id="jhlzbFUFrZ9kzbWuyFnt-29" style="edgeStyle=orthogonalEdgeStyle;rounded=0;orthogonalLoop=1;jettySize=auto;html=1;exitX=0.5;exitY=1;exitDx=0;exitDy=0;fontSize=14;" parent="1" source="jhlzbFUFrZ9kzbWuyFnt-26" edge="1">
          <mxGeometry relative="1" as="geometry">
            <mxPoint x="440" y="270" as="targetPoint" />
            <Array as="points">
              <mxPoint x="500" y="230" />
              <mxPoint x="440" y="230" />
              <mxPoint x="440" y="270" />
            </Array>
          </mxGeometry>
        </mxCell>
        <mxCell id="jhlzbFUFrZ9kzbWuyFnt-26" value="" style="rounded=1;whiteSpace=wrap;html=1;fontSize=14;align=left;" parent="1" vertex="1">
          <mxGeometry x="440" y="135" width="120" height="60" as="geometry" />
        </mxCell>
        <mxCell id="jhlzbFUFrZ9kzbWuyFnt-27" value="file" style="text;html=1;resizable=0;autosize=1;align=center;verticalAlign=middle;points=[];fillColor=none;strokeColor=none;rounded=0;fontSize=14;" parent="1" vertex="1">
          <mxGeometry x="485" y="155" width="30" height="20" as="geometry" />
        </mxCell>
        <mxCell id="jhlzbFUFrZ9kzbWuyFnt-33" style="edgeStyle=orthogonalEdgeStyle;rounded=0;orthogonalLoop=1;jettySize=auto;html=1;fontSize=14;" parent="1" source="jhlzbFUFrZ9kzbWuyFnt-31" target="jhlzbFUFrZ9kzbWuyFnt-34" edge="1">
          <mxGeometry relative="1" as="geometry">
            <mxPoint x="430" y="390" as="targetPoint" />
          </mxGeometry>
        </mxCell>
        <mxCell id="jhlzbFUFrZ9kzbWuyFnt-31" value="" style="ellipse;whiteSpace=wrap;html=1;fontSize=14;align=left;" parent="1" vertex="1">
          <mxGeometry x="360" y="270" width="140" height="80" as="geometry" />
        </mxCell>
        <mxCell id="jhlzbFUFrZ9kzbWuyFnt-32" value="&lt;font style=&quot;font-size: 14px&quot;&gt;&lt;span style=&quot;color: rgba(0 , 0 , 0 , 0.87) ; text-align: left ; background-color: rgb(255 , 255 , 255)&quot;&gt;&lt;font&gt;disguise&lt;/font&gt;&lt;/span&gt;&lt;br&gt;(маскировка)&lt;/font&gt;" style="text;html=1;resizable=0;autosize=1;align=center;verticalAlign=middle;points=[];fillColor=none;strokeColor=none;rounded=0;fontSize=14;" parent="1" vertex="1">
          <mxGeometry x="380" y="290" width="100" height="40" as="geometry" />
        </mxCell>
        <mxCell id="jhlzbFUFrZ9kzbWuyFnt-78" style="edgeStyle=orthogonalEdgeStyle;rounded=0;orthogonalLoop=1;jettySize=auto;html=1;exitX=0.5;exitY=1;exitDx=0;exitDy=0;fontFamily=Helvetica;fontSize=14;entryX=0.5;entryY=0;entryDx=0;entryDy=0;" parent="1" source="jhlzbFUFrZ9kzbWuyFnt-34" target="jhlzbFUFrZ9kzbWuyFnt-61" edge="1">
          <mxGeometry relative="1" as="geometry">
            <mxPoint x="430" y="630" as="targetPoint" />
          </mxGeometry>
        </mxCell>
        <mxCell id="jhlzbFUFrZ9kzbWuyFnt-80" style="edgeStyle=orthogonalEdgeStyle;rounded=0;orthogonalLoop=1;jettySize=auto;html=1;exitX=0.25;exitY=1;exitDx=0;exitDy=0;entryX=0.5;entryY=0;entryDx=0;entryDy=0;fontFamily=Helvetica;fontSize=14;" parent="1" source="jhlzbFUFrZ9kzbWuyFnt-34" target="jhlzbFUFrZ9kzbWuyFnt-67" edge="1">
          <mxGeometry relative="1" as="geometry">
            <Array as="points">
              <mxPoint x="390" y="505" />
              <mxPoint x="168" y="505" />
            </Array>
          </mxGeometry>
        </mxCell>
        <mxCell id="jhlzbFUFrZ9kzbWuyFnt-81" style="edgeStyle=orthogonalEdgeStyle;rounded=0;orthogonalLoop=1;jettySize=auto;html=1;exitX=0.75;exitY=1;exitDx=0;exitDy=0;entryX=0.5;entryY=0;entryDx=0;entryDy=0;fontFamily=Helvetica;fontSize=14;" parent="1" source="jhlzbFUFrZ9kzbWuyFnt-34" target="jhlzbFUFrZ9kzbWuyFnt-73" edge="1">
          <mxGeometry relative="1" as="geometry" />
        </mxCell>
        <mxCell id="jhlzbFUFrZ9kzbWuyFnt-34" value="" style="shape=parallelogram;perimeter=parallelogramPerimeter;whiteSpace=wrap;html=1;fixedSize=1;fontSize=14;align=left;" parent="1" vertex="1">
          <mxGeometry x="350" y="390" width="160" height="50" as="geometry" />
        </mxCell>
        <mxCell id="jhlzbFUFrZ9kzbWuyFnt-36" value="trojan" style="text;html=1;resizable=0;autosize=1;align=center;verticalAlign=middle;points=[];fillColor=none;strokeColor=none;rounded=0;fontSize=14;" parent="1" vertex="1">
          <mxGeometry x="405" y="405" width="50" height="20" as="geometry" />
        </mxCell>
        <mxCell id="jhlzbFUFrZ9kzbWuyFnt-45" value="" style="edgeStyle=orthogonalEdgeStyle;rounded=0;orthogonalLoop=1;jettySize=auto;html=1;fontSize=14;" parent="1" source="jhlzbFUFrZ9kzbWuyFnt-41" edge="1">
          <mxGeometry relative="1" as="geometry">
            <mxPoint x="560" y="165" as="targetPoint" />
          </mxGeometry>
        </mxCell>
        <mxCell id="jhlzbFUFrZ9kzbWuyFnt-41" value="Type" style="swimlane;fontStyle=0;childLayout=stackLayout;horizontal=1;startSize=30;horizontalStack=0;resizeParent=1;resizeParentMax=0;resizeLast=0;collapsible=1;marginBottom=0;fontSize=14;align=left;" parent="1" vertex="1">
          <mxGeometry x="610" y="105" width="140" height="120" as="geometry">
            <mxRectangle x="520" y="35" width="50" height="30" as="alternateBounds" />
          </mxGeometry>
        </mxCell>
        <mxCell id="jhlzbFUFrZ9kzbWuyFnt-42" value="exe" style="text;strokeColor=none;fillColor=none;align=left;verticalAlign=middle;spacingLeft=4;spacingRight=4;overflow=hidden;points=[[0,0.5],[1,0.5]];portConstraint=eastwest;rotatable=0;fontSize=14;" parent="jhlzbFUFrZ9kzbWuyFnt-41" vertex="1">
          <mxGeometry y="30" width="140" height="30" as="geometry" />
        </mxCell>
        <mxCell id="jhlzbFUFrZ9kzbWuyFnt-43" value="jpg, bmp, png, gif..." style="text;strokeColor=none;fillColor=none;align=left;verticalAlign=middle;spacingLeft=4;spacingRight=4;overflow=hidden;points=[[0,0.5],[1,0.5]];portConstraint=eastwest;rotatable=0;fontSize=14;" parent="jhlzbFUFrZ9kzbWuyFnt-41" vertex="1">
          <mxGeometry y="60" width="140" height="30" as="geometry" />
        </mxCell>
        <mxCell id="jhlzbFUFrZ9kzbWuyFnt-44" value="docx, ppx, xls..." style="text;strokeColor=none;fillColor=none;align=left;verticalAlign=middle;spacingLeft=4;spacingRight=4;overflow=hidden;points=[[0,0.5],[1,0.5]];portConstraint=eastwest;rotatable=0;fontSize=14;" parent="jhlzbFUFrZ9kzbWuyFnt-41" vertex="1">
          <mxGeometry y="90" width="140" height="30" as="geometry" />
        </mxCell>
        <mxCell id="jhlzbFUFrZ9kzbWuyFnt-51" value="" style="edgeStyle=orthogonalEdgeStyle;rounded=0;orthogonalLoop=1;jettySize=auto;html=1;fontSize=14;entryX=0;entryY=0.5;entryDx=0;entryDy=0;" parent="1" source="jhlzbFUFrZ9kzbWuyFnt-46" target="jhlzbFUFrZ9kzbWuyFnt-18" edge="1">
          <mxGeometry relative="1" as="geometry">
            <mxPoint x="290" y="165" as="targetPoint" />
          </mxGeometry>
        </mxCell>
        <mxCell id="jhlzbFUFrZ9kzbWuyFnt-46" value="Example" style="swimlane;fontStyle=0;childLayout=stackLayout;horizontal=1;startSize=30;horizontalStack=0;resizeParent=1;resizeParentMax=0;resizeLast=0;collapsible=1;marginBottom=0;fontSize=14;align=left;" parent="1" vertex="1">
          <mxGeometry x="110" y="105" width="140" height="120" as="geometry" />
        </mxCell>
        <mxCell id="jhlzbFUFrZ9kzbWuyFnt-47" value="NjRAT, Dark Comet" style="text;strokeColor=none;fillColor=none;align=left;verticalAlign=middle;spacingLeft=4;spacingRight=4;overflow=hidden;points=[[0,0.5],[1,0.5]];portConstraint=eastwest;rotatable=0;fontSize=14;" parent="jhlzbFUFrZ9kzbWuyFnt-46" vertex="1">
          <mxGeometry y="30" width="140" height="30" as="geometry" />
        </mxCell>
        <mxCell id="jhlzbFUFrZ9kzbWuyFnt-48" value="Empire project" style="text;strokeColor=none;fillColor=none;align=left;verticalAlign=middle;spacingLeft=4;spacingRight=4;overflow=hidden;points=[[0,0.5],[1,0.5]];portConstraint=eastwest;rotatable=0;fontSize=14;" parent="jhlzbFUFrZ9kzbWuyFnt-46" vertex="1">
          <mxGeometry y="60" width="140" height="30" as="geometry" />
        </mxCell>
        <mxCell id="jhlzbFUFrZ9kzbWuyFnt-49" value="msfvenom" style="text;strokeColor=none;fillColor=none;align=left;verticalAlign=middle;spacingLeft=4;spacingRight=4;overflow=hidden;points=[[0,0.5],[1,0.5]];portConstraint=eastwest;rotatable=0;fontSize=14;" parent="jhlzbFUFrZ9kzbWuyFnt-46" vertex="1">
          <mxGeometry y="90" width="140" height="30" as="geometry" />
        </mxCell>
        <mxCell id="jhlzbFUFrZ9kzbWuyFnt-57" value="" style="edgeStyle=orthogonalEdgeStyle;rounded=0;orthogonalLoop=1;jettySize=auto;html=1;fontSize=14;" parent="1" source="jhlzbFUFrZ9kzbWuyFnt-52" target="jhlzbFUFrZ9kzbWuyFnt-31" edge="1">
          <mxGeometry relative="1" as="geometry" />
        </mxCell>
        <mxCell id="jhlzbFUFrZ9kzbWuyFnt-52" value="Example" style="swimlane;fontStyle=0;childLayout=stackLayout;horizontal=1;startSize=30;horizontalStack=0;resizeParent=1;resizeParentMax=0;resizeLast=0;collapsible=1;marginBottom=0;fontSize=14;align=left;" parent="1" vertex="1">
          <mxGeometry x="110" y="265" width="140" height="90" as="geometry" />
        </mxCell>
        <mxCell id="jhlzbFUFrZ9kzbWuyFnt-53" value="shelter" style="text;strokeColor=none;fillColor=none;align=left;verticalAlign=middle;spacingLeft=4;spacingRight=4;overflow=hidden;points=[[0,0.5],[1,0.5]];portConstraint=eastwest;rotatable=0;fontSize=14;" parent="jhlzbFUFrZ9kzbWuyFnt-52" vertex="1">
          <mxGeometry y="30" width="140" height="30" as="geometry" />
        </mxCell>
        <mxCell id="jhlzbFUFrZ9kzbWuyFnt-55" value="script encoder plus" style="text;strokeColor=none;fillColor=none;align=left;verticalAlign=middle;spacingLeft=4;spacingRight=4;overflow=hidden;points=[[0,0.5],[1,0.5]];portConstraint=eastwest;rotatable=0;fontSize=14;" parent="jhlzbFUFrZ9kzbWuyFnt-52" vertex="1">
          <mxGeometry y="60" width="140" height="30" as="geometry" />
        </mxCell>
        <mxCell id="jhlzbFUFrZ9kzbWuyFnt-59" value="&lt;b&gt;&lt;font style=&quot;font-size: 24px&quot;&gt;Weaponization&lt;/font&gt;&lt;/b&gt;" style="text;html=1;resizable=0;autosize=1;align=center;verticalAlign=middle;points=[];fillColor=none;strokeColor=none;rounded=0;fontSize=14;" parent="1" vertex="1">
          <mxGeometry x="340" y="90" width="180" height="30" as="geometry" />
        </mxCell>
        <mxCell id="jhlzbFUFrZ9kzbWuyFnt-60" value="&lt;font style=&quot;font-size: 24px&quot;&gt;&lt;b&gt;Delivery&lt;/b&gt;&lt;/font&gt;" style="text;html=1;resizable=0;autosize=1;align=center;verticalAlign=middle;points=[];fillColor=none;strokeColor=none;rounded=0;fontFamily=Helvetica;fontSize=14;" parent="1" vertex="1">
          <mxGeometry x="280" y="470" width="110" height="30" as="geometry" />
        </mxCell>
        <mxCell id="jhlzbFUFrZ9kzbWuyFnt-92" style="edgeStyle=orthogonalEdgeStyle;rounded=0;orthogonalLoop=1;jettySize=auto;html=1;exitX=0.5;exitY=1;exitDx=0;exitDy=0;entryX=0;entryY=0.5;entryDx=0;entryDy=0;fontFamily=Helvetica;fontSize=14;" parent="1" source="jhlzbFUFrZ9kzbWuyFnt-61" target="jhlzbFUFrZ9kzbWuyFnt-84" edge="1">
          <mxGeometry relative="1" as="geometry" />
        </mxCell>
        <mxCell id="jhlzbFUFrZ9kzbWuyFnt-61" value="" style="rounded=0;whiteSpace=wrap;html=1;fontFamily=Helvetica;fontSize=24;align=left;" parent="1" vertex="1">
          <mxGeometry x="372.5" y="570" width="115" height="40" as="geometry" />
        </mxCell>
        <mxCell id="jhlzbFUFrZ9kzbWuyFnt-86" style="edgeStyle=orthogonalEdgeStyle;rounded=0;orthogonalLoop=1;jettySize=auto;html=1;exitX=1;exitY=0.5;exitDx=0;exitDy=0;fontFamily=Helvetica;fontSize=14;" parent="1" source="jhlzbFUFrZ9kzbWuyFnt-67" edge="1">
          <mxGeometry relative="1" as="geometry">
            <mxPoint x="370" y="590" as="targetPoint" />
          </mxGeometry>
        </mxCell>
        <mxCell id="jhlzbFUFrZ9kzbWuyFnt-88" style="edgeStyle=orthogonalEdgeStyle;rounded=0;orthogonalLoop=1;jettySize=auto;html=1;exitX=0.5;exitY=1;exitDx=0;exitDy=0;entryX=0;entryY=0.5;entryDx=0;entryDy=0;fontFamily=Helvetica;fontSize=14;" parent="1" source="jhlzbFUFrZ9kzbWuyFnt-67" target="jhlzbFUFrZ9kzbWuyFnt-83" edge="1">
          <mxGeometry relative="1" as="geometry" />
        </mxCell>
        <mxCell id="jhlzbFUFrZ9kzbWuyFnt-67" value="" style="rounded=0;whiteSpace=wrap;html=1;fontFamily=Helvetica;fontSize=14;align=left;" parent="1" vertex="1">
          <mxGeometry x="110" y="570" width="115" height="40" as="geometry" />
        </mxCell>
        <mxCell id="jhlzbFUFrZ9kzbWuyFnt-68" value="Social network" style="text;html=1;resizable=0;autosize=1;align=center;verticalAlign=middle;points=[];fillColor=none;strokeColor=none;rounded=0;fontFamily=Helvetica;fontSize=14;" parent="1" vertex="1">
          <mxGeometry x="112.5" y="580" width="110" height="20" as="geometry" />
        </mxCell>
        <mxCell id="jhlzbFUFrZ9kzbWuyFnt-85" style="edgeStyle=orthogonalEdgeStyle;rounded=0;orthogonalLoop=1;jettySize=auto;html=1;exitX=0;exitY=0.5;exitDx=0;exitDy=0;entryX=1;entryY=0.5;entryDx=0;entryDy=0;fontFamily=Helvetica;fontSize=14;" parent="1" source="jhlzbFUFrZ9kzbWuyFnt-73" target="jhlzbFUFrZ9kzbWuyFnt-61" edge="1">
          <mxGeometry relative="1" as="geometry" />
        </mxCell>
        <mxCell id="jhlzbFUFrZ9kzbWuyFnt-90" style="edgeStyle=orthogonalEdgeStyle;rounded=0;orthogonalLoop=1;jettySize=auto;html=1;exitX=0.25;exitY=1;exitDx=0;exitDy=0;entryX=1;entryY=0.5;entryDx=0;entryDy=0;fontFamily=Helvetica;fontSize=14;" parent="1" source="jhlzbFUFrZ9kzbWuyFnt-73" target="jhlzbFUFrZ9kzbWuyFnt-84" edge="1">
          <mxGeometry relative="1" as="geometry" />
        </mxCell>
        <mxCell id="jhlzbFUFrZ9kzbWuyFnt-91" style="edgeStyle=orthogonalEdgeStyle;rounded=0;orthogonalLoop=1;jettySize=auto;html=1;exitX=0.75;exitY=1;exitDx=0;exitDy=0;entryX=1;entryY=0.5;entryDx=0;entryDy=0;fontFamily=Helvetica;fontSize=14;" parent="1" source="jhlzbFUFrZ9kzbWuyFnt-73" target="jhlzbFUFrZ9kzbWuyFnt-83" edge="1">
          <mxGeometry relative="1" as="geometry" />
        </mxCell>
        <mxCell id="jhlzbFUFrZ9kzbWuyFnt-73" value="" style="rounded=0;whiteSpace=wrap;html=1;fontFamily=Helvetica;fontSize=14;align=left;" parent="1" vertex="1">
          <mxGeometry x="635" y="570" width="115" height="40" as="geometry" />
        </mxCell>
        <mxCell id="jhlzbFUFrZ9kzbWuyFnt-74" value="Email" style="text;html=1;resizable=0;autosize=1;align=center;verticalAlign=middle;points=[];fillColor=none;strokeColor=none;rounded=0;fontFamily=Helvetica;fontSize=14;" parent="1" vertex="1">
          <mxGeometry x="667.5" y="580" width="50" height="20" as="geometry" />
        </mxCell>
        <mxCell id="jhlzbFUFrZ9kzbWuyFnt-79" value="Site-clone" style="text;html=1;resizable=0;autosize=1;align=center;verticalAlign=middle;points=[];fillColor=none;strokeColor=none;rounded=0;fontFamily=Helvetica;fontSize=14;" parent="1" vertex="1">
          <mxGeometry x="390" y="580" width="80" height="20" as="geometry" />
        </mxCell>
        <mxCell id="jhlzbFUFrZ9kzbWuyFnt-83" value="Take a look&lt;br&gt;at this..." style="rounded=0;whiteSpace=wrap;html=1;fontFamily=Helvetica;fontSize=14;align=center;" parent="1" vertex="1">
          <mxGeometry x="240" y="680" width="120" height="60" as="geometry" />
        </mxCell>
        <mxCell id="jhlzbFUFrZ9kzbWuyFnt-84" value="&lt;div&gt;&lt;span&gt;Download and&lt;/span&gt;&lt;/div&gt;&lt;div&gt;&lt;span&gt;install the app&lt;/span&gt;&lt;/div&gt;" style="rounded=0;whiteSpace=wrap;html=1;fontFamily=Helvetica;fontSize=14;align=center;" parent="1" vertex="1">
          <mxGeometry x="500" y="630" width="120" height="60" as="geometry" />
        </mxCell>
      </root>
    </mxGraphModel>
  </diagram>
  <diagram id="AiZ31Qg1dFCBFwaHnzil" name="Page-2">
    <mxGraphModel dx="1422" dy="772" grid="1" gridSize="10" guides="1" tooltips="1" connect="1" arrows="1" fold="1" page="1" pageScale="1" pageWidth="850" pageHeight="1100" math="0" shadow="0">
      <root>
        <mxCell id="Zr-BWSJJQ4udQxX_Z5t2-0" />
        <mxCell id="Zr-BWSJJQ4udQxX_Z5t2-1" parent="Zr-BWSJJQ4udQxX_Z5t2-0" />
        <mxCell id="qtCz4snrWuHsNMm3v-mu-0" value="" style="edgeStyle=orthogonalEdgeStyle;rounded=0;orthogonalLoop=1;jettySize=auto;html=1;fontSize=14;entryX=0.5;entryY=0;entryDx=0;entryDy=0;" edge="1" parent="Zr-BWSJJQ4udQxX_Z5t2-1" source="qtCz4snrWuHsNMm3v-mu-1" target="qtCz4snrWuHsNMm3v-mu-7">
          <mxGeometry relative="1" as="geometry">
            <mxPoint x="430" y="260" as="targetPoint" />
          </mxGeometry>
        </mxCell>
        <mxCell id="qtCz4snrWuHsNMm3v-mu-1" value="" style="rounded=0;whiteSpace=wrap;html=1;fontSize=14;align=left;" vertex="1" parent="Zr-BWSJJQ4udQxX_Z5t2-1">
          <mxGeometry x="260" y="125" width="280" height="55" as="geometry" />
        </mxCell>
        <mxCell id="qtCz4snrWuHsNMm3v-mu-2" value="sublime_text_build_412l_x64_setup.exe" style="text;html=1;resizable=0;autosize=1;align=center;verticalAlign=middle;points=[];fillColor=none;strokeColor=none;rounded=0;fontSize=14;" vertex="1" parent="Zr-BWSJJQ4udQxX_Z5t2-1">
          <mxGeometry x="270" y="142.5" width="260" height="20" as="geometry" />
        </mxCell>
        <mxCell id="qtCz4snrWuHsNMm3v-mu-54" style="edgeStyle=orthogonalEdgeStyle;rounded=0;orthogonalLoop=1;jettySize=auto;html=1;exitX=0.5;exitY=1;exitDx=0;exitDy=0;entryX=1;entryY=0.5;entryDx=0;entryDy=0;fontSize=14;" edge="1" parent="Zr-BWSJJQ4udQxX_Z5t2-1" source="qtCz4snrWuHsNMm3v-mu-4" target="qtCz4snrWuHsNMm3v-mu-7">
          <mxGeometry relative="1" as="geometry" />
        </mxCell>
        <mxCell id="qtCz4snrWuHsNMm3v-mu-4" value="" style="rounded=1;whiteSpace=wrap;html=1;fontSize=14;align=left;" vertex="1" parent="Zr-BWSJJQ4udQxX_Z5t2-1">
          <mxGeometry x="550" y="125" width="290" height="55" as="geometry" />
        </mxCell>
        <mxCell id="qtCz4snrWuHsNMm3v-mu-5" value="sublime_text_build_4121_x64_setup.exe" style="text;html=1;resizable=0;autosize=1;align=center;verticalAlign=middle;points=[];fillColor=none;strokeColor=none;rounded=0;fontSize=14;" vertex="1" parent="Zr-BWSJJQ4udQxX_Z5t2-1">
          <mxGeometry x="560" y="142.5" width="270" height="20" as="geometry" />
        </mxCell>
        <mxCell id="qtCz4snrWuHsNMm3v-mu-6" style="edgeStyle=orthogonalEdgeStyle;rounded=0;orthogonalLoop=1;jettySize=auto;html=1;fontSize=14;" edge="1" parent="Zr-BWSJJQ4udQxX_Z5t2-1" source="qtCz4snrWuHsNMm3v-mu-7" target="qtCz4snrWuHsNMm3v-mu-12">
          <mxGeometry relative="1" as="geometry">
            <mxPoint x="440" y="380" as="targetPoint" />
          </mxGeometry>
        </mxCell>
        <mxCell id="qtCz4snrWuHsNMm3v-mu-7" value="&lt;div style=&quot;text-align: center&quot;&gt;&lt;br&gt;&lt;/div&gt;&lt;div style=&quot;text-align: justify&quot;&gt;&lt;/div&gt;" style="ellipse;whiteSpace=wrap;html=1;fontSize=14;align=left;" vertex="1" parent="Zr-BWSJJQ4udQxX_Z5t2-1">
          <mxGeometry x="330" y="210" width="140" height="50" as="geometry" />
        </mxCell>
        <mxCell id="qtCz4snrWuHsNMm3v-mu-56" style="edgeStyle=orthogonalEdgeStyle;rounded=0;orthogonalLoop=1;jettySize=auto;html=1;exitX=0.5;exitY=1;exitDx=0;exitDy=0;entryX=0.5;entryY=0;entryDx=0;entryDy=0;fontSize=14;" edge="1" parent="Zr-BWSJJQ4udQxX_Z5t2-1" source="qtCz4snrWuHsNMm3v-mu-12" target="qtCz4snrWuHsNMm3v-mu-31">
          <mxGeometry relative="1" as="geometry" />
        </mxCell>
        <mxCell id="qtCz4snrWuHsNMm3v-mu-12" value="" style="shape=parallelogram;perimeter=parallelogramPerimeter;whiteSpace=wrap;html=1;fixedSize=1;fontSize=14;align=left;" vertex="1" parent="Zr-BWSJJQ4udQxX_Z5t2-1">
          <mxGeometry x="240" y="290" width="320" height="50" as="geometry" />
        </mxCell>
        <mxCell id="qtCz4snrWuHsNMm3v-mu-13" value="sublime_text_build_4l21_x64_setup.exe&lt;br&gt;(sfx)" style="text;html=1;resizable=0;autosize=1;align=center;verticalAlign=middle;points=[];fillColor=none;strokeColor=none;rounded=0;fontSize=14;" vertex="1" parent="Zr-BWSJJQ4udQxX_Z5t2-1">
          <mxGeometry x="270" y="295" width="260" height="40" as="geometry" />
        </mxCell>
        <mxCell id="qtCz4snrWuHsNMm3v-mu-28" value="&lt;b&gt;&lt;font style=&quot;font-size: 24px&quot;&gt;Weaponization&lt;/font&gt;&lt;/b&gt;" style="text;html=1;resizable=0;autosize=1;align=center;verticalAlign=middle;points=[];fillColor=none;strokeColor=none;rounded=0;fontSize=14;" vertex="1" parent="Zr-BWSJJQ4udQxX_Z5t2-1">
          <mxGeometry x="350" y="80" width="180" height="30" as="geometry" />
        </mxCell>
        <mxCell id="qtCz4snrWuHsNMm3v-mu-29" value="&lt;font style=&quot;font-size: 24px&quot;&gt;&lt;b&gt;Delivery&lt;/b&gt;&lt;/font&gt;" style="text;html=1;resizable=0;autosize=1;align=center;verticalAlign=middle;points=[];fillColor=none;strokeColor=none;rounded=0;fontFamily=Helvetica;fontSize=14;" vertex="1" parent="Zr-BWSJJQ4udQxX_Z5t2-1">
          <mxGeometry x="490" y="380" width="110" height="30" as="geometry" />
        </mxCell>
        <mxCell id="qtCz4snrWuHsNMm3v-mu-30" style="edgeStyle=orthogonalEdgeStyle;rounded=0;orthogonalLoop=1;jettySize=auto;html=1;exitX=0.5;exitY=1;exitDx=0;exitDy=0;entryX=0.5;entryY=0;entryDx=0;entryDy=0;fontFamily=Helvetica;fontSize=14;" edge="1" parent="Zr-BWSJJQ4udQxX_Z5t2-1" source="qtCz4snrWuHsNMm3v-mu-31" target="qtCz4snrWuHsNMm3v-mu-43">
          <mxGeometry relative="1" as="geometry" />
        </mxCell>
        <mxCell id="qtCz4snrWuHsNMm3v-mu-31" value="" style="rounded=0;whiteSpace=wrap;html=1;fontFamily=Helvetica;fontSize=24;align=left;" vertex="1" parent="Zr-BWSJJQ4udQxX_Z5t2-1">
          <mxGeometry x="310" y="420" width="180" height="60" as="geometry" />
        </mxCell>
        <mxCell id="qtCz4snrWuHsNMm3v-mu-59" style="edgeStyle=orthogonalEdgeStyle;rounded=0;orthogonalLoop=1;jettySize=auto;html=1;exitX=0;exitY=0.5;exitDx=0;exitDy=0;entryX=1;entryY=0.5;entryDx=0;entryDy=0;fontSize=14;" edge="1" parent="Zr-BWSJJQ4udQxX_Z5t2-1" source="qtCz4snrWuHsNMm3v-mu-39" target="qtCz4snrWuHsNMm3v-mu-31">
          <mxGeometry relative="1" as="geometry" />
        </mxCell>
        <mxCell id="qtCz4snrWuHsNMm3v-mu-39" value="Email: Check the new Order&amp;nbsp;&lt;br&gt;From: Boss" style="rounded=0;whiteSpace=wrap;html=1;fontFamily=Helvetica;fontSize=14;align=center;" vertex="1" parent="Zr-BWSJJQ4udQxX_Z5t2-1">
          <mxGeometry x="595" y="425" width="200" height="50" as="geometry" />
        </mxCell>
        <mxCell id="qtCz4snrWuHsNMm3v-mu-41" value="18.169.31.13/corporation&lt;br&gt;(site-clone)" style="text;html=1;resizable=0;autosize=1;align=center;verticalAlign=middle;points=[];fillColor=none;strokeColor=none;rounded=0;fontFamily=Helvetica;fontSize=14;" vertex="1" parent="Zr-BWSJJQ4udQxX_Z5t2-1">
          <mxGeometry x="315" y="430" width="170" height="40" as="geometry" />
        </mxCell>
        <mxCell id="qtCz4snrWuHsNMm3v-mu-62" style="edgeStyle=orthogonalEdgeStyle;rounded=0;orthogonalLoop=1;jettySize=auto;html=1;exitX=0.5;exitY=1;exitDx=0;exitDy=0;entryX=0.5;entryY=0;entryDx=0;entryDy=0;fontSize=24;" edge="1" parent="Zr-BWSJJQ4udQxX_Z5t2-1" source="qtCz4snrWuHsNMm3v-mu-43" target="qtCz4snrWuHsNMm3v-mu-61">
          <mxGeometry relative="1" as="geometry" />
        </mxCell>
        <mxCell id="qtCz4snrWuHsNMm3v-mu-43" value="&lt;div&gt;&lt;span&gt;Order: Download and&lt;/span&gt;&lt;/div&gt;&lt;div&gt;&lt;span&gt;install the app&lt;/span&gt;&lt;/div&gt;" style="rounded=0;whiteSpace=wrap;html=1;fontFamily=Helvetica;fontSize=14;align=center;" vertex="1" parent="Zr-BWSJJQ4udQxX_Z5t2-1">
          <mxGeometry x="320" y="520" width="160" height="60" as="geometry" />
        </mxCell>
        <mxCell id="qtCz4snrWuHsNMm3v-mu-48" style="edgeStyle=orthogonalEdgeStyle;rounded=0;orthogonalLoop=1;jettySize=auto;html=1;exitX=1;exitY=0.5;exitDx=0;exitDy=0;entryX=0;entryY=0.5;entryDx=0;entryDy=0;fontSize=14;" edge="1" parent="Zr-BWSJJQ4udQxX_Z5t2-1" source="qtCz4snrWuHsNMm3v-mu-46" target="qtCz4snrWuHsNMm3v-mu-47">
          <mxGeometry relative="1" as="geometry" />
        </mxCell>
        <mxCell id="qtCz4snrWuHsNMm3v-mu-46" value="&lt;font style=&quot;font-size: 14px&quot;&gt;crypt.py&lt;/font&gt;" style="rounded=0;whiteSpace=wrap;html=1;" vertex="1" parent="Zr-BWSJJQ4udQxX_Z5t2-1">
          <mxGeometry x="10" y="128.75" width="90" height="47.5" as="geometry" />
        </mxCell>
        <mxCell id="qtCz4snrWuHsNMm3v-mu-51" style="edgeStyle=orthogonalEdgeStyle;rounded=0;orthogonalLoop=1;jettySize=auto;html=1;exitX=1;exitY=0.5;exitDx=0;exitDy=0;entryX=0;entryY=0.5;entryDx=0;entryDy=0;fontSize=14;" edge="1" parent="Zr-BWSJJQ4udQxX_Z5t2-1" source="qtCz4snrWuHsNMm3v-mu-47" target="qtCz4snrWuHsNMm3v-mu-1">
          <mxGeometry relative="1" as="geometry" />
        </mxCell>
        <mxCell id="qtCz4snrWuHsNMm3v-mu-47" value="pyinstaller" style="ellipse;whiteSpace=wrap;html=1;fontSize=14;" vertex="1" parent="Zr-BWSJJQ4udQxX_Z5t2-1">
          <mxGeometry x="130" y="120" width="102.5" height="65" as="geometry" />
        </mxCell>
        <mxCell id="qtCz4snrWuHsNMm3v-mu-52" value="&lt;font style=&quot;font-size: 14px&quot;&gt;WinRAR&lt;/font&gt;" style="text;html=1;strokeColor=none;fillColor=none;align=center;verticalAlign=middle;whiteSpace=wrap;rounded=0;fontSize=14;" vertex="1" parent="Zr-BWSJJQ4udQxX_Z5t2-1">
          <mxGeometry x="370" y="220" width="60" height="30" as="geometry" />
        </mxCell>
        <mxCell id="qtCz4snrWuHsNMm3v-mu-60" value="&lt;font style=&quot;font-size: 24px&quot;&gt;&lt;b&gt;Exploitation&lt;/b&gt;&lt;/font&gt;" style="text;html=1;strokeColor=none;fillColor=none;align=center;verticalAlign=middle;whiteSpace=wrap;rounded=0;fontSize=14;" vertex="1" parent="Zr-BWSJJQ4udQxX_Z5t2-1">
          <mxGeometry x="70" y="625" width="150" height="40" as="geometry" />
        </mxCell>
        <mxCell id="qtCz4snrWuHsNMm3v-mu-66" value="" style="edgeStyle=orthogonalEdgeStyle;rounded=0;orthogonalLoop=1;jettySize=auto;html=1;fontSize=14;entryX=0;entryY=0;entryDx=25;entryDy=190;entryPerimeter=0;" edge="1" parent="Zr-BWSJJQ4udQxX_Z5t2-1" source="qtCz4snrWuHsNMm3v-mu-61" target="qtCz4snrWuHsNMm3v-mu-64">
          <mxGeometry relative="1" as="geometry">
            <mxPoint x="580" y="643" as="targetPoint" />
            <Array as="points">
              <mxPoint x="573" y="645" />
              <mxPoint x="573" y="645" />
            </Array>
          </mxGeometry>
        </mxCell>
        <mxCell id="qtCz4snrWuHsNMm3v-mu-61" value="" style="shape=parallelogram;perimeter=parallelogramPerimeter;whiteSpace=wrap;html=1;fixedSize=1;fontSize=24;align=center;" vertex="1" parent="Zr-BWSJJQ4udQxX_Z5t2-1">
          <mxGeometry x="250" y="620" width="300" height="50" as="geometry" />
        </mxCell>
        <mxCell id="qtCz4snrWuHsNMm3v-mu-63" value="&lt;span style=&quot;font-size: 14px&quot;&gt;sublime_text_build_4l21_x64_setup.exe&lt;/span&gt;" style="text;html=1;strokeColor=none;fillColor=none;align=center;verticalAlign=middle;whiteSpace=wrap;rounded=0;fontSize=24;" vertex="1" parent="Zr-BWSJJQ4udQxX_Z5t2-1">
          <mxGeometry x="265" y="630" width="270" height="30" as="geometry" />
        </mxCell>
        <mxCell id="qtCz4snrWuHsNMm3v-mu-68" style="edgeStyle=orthogonalEdgeStyle;rounded=0;orthogonalLoop=1;jettySize=auto;html=1;exitX=0;exitY=0;exitDx=50;exitDy=82.5;exitPerimeter=0;entryX=1;entryY=0.5;entryDx=0;entryDy=0;fontSize=14;" edge="1" parent="Zr-BWSJJQ4udQxX_Z5t2-1" source="qtCz4snrWuHsNMm3v-mu-64" target="qtCz4snrWuHsNMm3v-mu-67">
          <mxGeometry relative="1" as="geometry" />
        </mxCell>
        <mxCell id="qtCz4snrWuHsNMm3v-mu-70" style="edgeStyle=orthogonalEdgeStyle;rounded=0;orthogonalLoop=1;jettySize=auto;html=1;exitX=0;exitY=0;exitDx=50;exitDy=82.5;exitPerimeter=0;entryX=1;entryY=0.5;entryDx=0;entryDy=0;fontSize=14;" edge="1" parent="Zr-BWSJJQ4udQxX_Z5t2-1" source="qtCz4snrWuHsNMm3v-mu-64" target="qtCz4snrWuHsNMm3v-mu-69">
          <mxGeometry relative="1" as="geometry" />
        </mxCell>
        <mxCell id="qtCz4snrWuHsNMm3v-mu-64" value="Run as administrator" style="shape=callout;whiteSpace=wrap;html=1;perimeter=calloutPerimeter;fontSize=14;align=center;position2=0.5;size=25;position=0.3;base=20;direction=south;" vertex="1" parent="Zr-BWSJJQ4udQxX_Z5t2-1">
          <mxGeometry x="595" y="620" width="190" height="50" as="geometry" />
        </mxCell>
        <mxCell id="qtCz4snrWuHsNMm3v-mu-72" style="edgeStyle=orthogonalEdgeStyle;rounded=0;orthogonalLoop=1;jettySize=auto;html=1;exitX=0;exitY=0.5;exitDx=0;exitDy=0;fontSize=14;" edge="1" parent="Zr-BWSJJQ4udQxX_Z5t2-1" source="qtCz4snrWuHsNMm3v-mu-67" target="qtCz4snrWuHsNMm3v-mu-71">
          <mxGeometry relative="1" as="geometry" />
        </mxCell>
        <mxCell id="qtCz4snrWuHsNMm3v-mu-67" value="runs&amp;nbsp;&lt;span&gt;sublime_text_build_412l_x64_setup.exe&lt;br&gt;(crypter)&lt;br&gt;&lt;/span&gt;" style="rounded=0;whiteSpace=wrap;html=1;fontSize=14;align=center;" vertex="1" parent="Zr-BWSJJQ4udQxX_Z5t2-1">
          <mxGeometry x="290" y="720" width="320" height="60" as="geometry" />
        </mxCell>
        <mxCell id="qtCz4snrWuHsNMm3v-mu-69" value="runs&amp;nbsp;&lt;span&gt;sublime_text_build_4121_x64_setup.exe&lt;br&gt;(true installer)&lt;br&gt;&lt;/span&gt;" style="rounded=0;whiteSpace=wrap;html=1;fontSize=14;align=center;" vertex="1" parent="Zr-BWSJJQ4udQxX_Z5t2-1">
          <mxGeometry x="290" y="800" width="320" height="60" as="geometry" />
        </mxCell>
        <mxCell id="qtCz4snrWuHsNMm3v-mu-71" value="encpypts files on disks:&lt;br&gt;C, D, E, F, G" style="shape=parallelogram;perimeter=parallelogramPerimeter;whiteSpace=wrap;html=1;fixedSize=1;fontSize=14;align=center;" vertex="1" parent="Zr-BWSJJQ4udQxX_Z5t2-1">
          <mxGeometry x="65" y="720" width="185" height="60" as="geometry" />
        </mxCell>
      </root>
    </mxGraphModel>
  </diagram>
</mxfile>
